<svg width="16" height="16" viewBox="0 0 16 16" fill="none" xmlns="http://www.w3.org/2000/svg">
<path fill-rule="evenodd" clip-rule="evenodd" d="M15.4135 0.586C15.0362 0.208 14.5335 0 13.9995 0C13.4655 0 12.9628 0.208 12.5855 0.586L11.6095 1.562L14.4382 4.39067L15.4142 3.41467C15.7922 3.03667 16.0002 2.53467 16.0002 2.00067C15.9995 1.46533 15.7915 0.963333 15.4135 0.586ZM5.11085 8.06L3.99951 12L7.93951 10.8887L13.4948 5.33333L10.6662 2.50467L5.11085 8.06ZM11.3328 10.6667C11.3328 10.2987 11.6308 10 11.9995 10C12.3682 10 12.6662 10.2987 12.6662 10.6667V14C12.6662 15.1027 11.7688 16 10.6662 16H1.99951C0.896845 16 -0.000488281 15.1027 -0.000488281 14V5.33333C-0.000488281 4.23067 0.896845 3.33333 1.99951 3.33333H5.33285C5.70151 3.33333 5.99951 3.632 5.99951 4C5.99951 4.368 5.70151 4.66667 5.33285 4.66667H1.99951C1.63151 4.66667 1.33285 4.966 1.33285 5.33333V14C1.33285 14.3673 1.63151 14.6667 1.99951 14.6667H10.6662C11.0342 14.6667 11.3328 14.3673 11.3328 14V10.6667Z" fill="#FBFBFB"/>
</svg>
