<svg width="16" height="16" viewBox="0 0 16 16" fill="none" xmlns="http://www.w3.org/2000/svg">
<path fill-rule="evenodd" clip-rule="evenodd" d="M15.4133 0.586C15.0359 0.208 14.5333 0 13.9993 0C13.4653 0 12.9626 0.208 12.5853 0.586L11.6093 1.562L14.4379 4.39067L15.4139 3.41467C15.7919 3.03667 15.9999 2.53467 15.9999 2.00067C15.9993 1.46533 15.7913 0.963333 15.4133 0.586ZM5.1106 8.06L3.99927 12L7.93927 10.8887L13.4946 5.33333L10.6659 2.50467L5.1106 8.06ZM11.3326 10.6667C11.3326 10.2987 11.6306 10 11.9993 10C12.3679 10 12.6659 10.2987 12.6659 10.6667V14C12.6659 15.1027 11.7686 16 10.6659 16H1.99927C0.896601 16 -0.000732422 15.1027 -0.000732422 14V5.33333C-0.000732422 4.23067 0.896601 3.33333 1.99927 3.33333H5.3326C5.70127 3.33333 5.99927 3.632 5.99927 4C5.99927 4.368 5.70127 4.66667 5.3326 4.66667H1.99927C1.63127 4.66667 1.3326 4.966 1.3326 5.33333V14C1.3326 14.3673 1.63127 14.6667 1.99927 14.6667H10.6659C11.0339 14.6667 11.3326 14.3673 11.3326 14V10.6667Z" fill="#0E1013"/>
</svg>
