<svg width="17" height="16" viewBox="0 0 17 16" fill="none" xmlns="http://www.w3.org/2000/svg">
<path fill-rule="evenodd" clip-rule="evenodd" d="M8.50028 0C8.29961 0 8.09628 0.0113333 7.89161 0.0353333C5.54694 0.306 3.59628 2.23733 3.23361 4.66533C2.96028 6.496 3.54761 8.18867 4.63694 9.38C5.29494 10.0987 5.69694 11.022 5.80294 12.0007H11.1976C11.3003 11.03 11.6896 10.1093 12.3443 9.40133C13.2663 8.404 13.8336 7.05 13.8336 5.556C13.8336 2.48733 11.4456 0 8.50028 0ZM10.8756 8.04333C10.3556 8.606 9.94094 9.27267 9.65028 10.0007H7.34494C7.05294 9.27267 6.63561 8.60133 6.11294 8.03C5.37028 7.218 5.04161 6.09933 5.21161 4.96067C5.44094 3.426 6.66428 2.19 8.12028 2.022C8.24694 2.00733 8.37494 2 8.50028 2C10.3383 2 11.8336 3.59533 11.8336 5.55533C11.8336 6.49133 11.4936 7.37467 10.8756 8.04333ZM8.50028 16C7.76694 16 7.16694 15.4 7.16694 14.6667C6.43028 14.6667 5.83361 14.07 5.83361 13.3333H11.1669C11.1669 14.0693 10.5703 14.6667 9.83361 14.6667C9.83361 15.4 9.23361 16 8.50028 16Z" fill="white"/>
</svg>
